<?xml version="1.0" encoding="UTF-8"?><svg xmlns="http://www.w3.org/2000/svg" xmlns:xlink="http://www.w3.org/1999/xlink" viewBox="0 0 432.06 165.93"><defs><style>.o{fill:url(#e);}.p{fill:url(#d);}.q{fill:url(#g);}.r{fill:url(#f);}.s{fill:url(#i);}.t{fill:url(#h);}.u{fill:url(#k);}.v{fill:url(#j);}.w{fill:url(#m);}.x{fill:url(#l);}.y{fill:url(#n);}.a`{fill:#531d5a;}</style><linearGradient id="d" x1="144.07" y1="57.1" x2="144.07" y2="111.58" gradientTransform="matrix(1, 0, 0, 1, 0, 0)" gradientUnits="userSpaceOnUse"><stop offset="0" stop-color="#a9258d"/><stop offset="1" stop-color="#531d5a"/></linearGradient><linearGradient id="e" x1="21.86" y1="58.23" x2="21.86" xlink:href="#d"/><linearGradient id="f" x1="54.55" y1="21.67" x2="54.55" y2="110.25" xlink:href="#d"/><linearGradient id="g" x1="77.42" y1="41.34" x2="77.42" y2="110.25" xlink:href="#d"/><linearGradient id="h" x1="106.22" y1="57.41" x2="106.22" y2="110.25" xlink:href="#d"/><linearGradient id="i" x1="202.43" y1="57" x2="202.43" y2="130.63" gradientTransform="matrix(1, 0, 0, 1, 0, 0)" gradientUnits="userSpaceOnUse"><stop offset="0" stop-color="#8ec640"/><stop offset="1" stop-color="#576d31"/></linearGradient><linearGradient id="j" x1="262.93" y1="56.8" x2="262.93" y2="111.68" xlink:href="#i"/><linearGradient id="k" x1="367.17" y1="58.23" x2="367.17" y2="127.04" xlink:href="#i"/><linearGradient id="l" x1="318.67" y1="57.21" x2="318.67" y2="110.46" xlink:href="#i"/><linearGradient id="m" x1="411.92" y1="58.23" x2="411.92" y2="110.25" xlink:href="#i"/><linearGradient id="n" x1="402.76" y1="0" x2="402.76" y2="165.93" xlink:href="#i"/></defs><g id="a"/><g id="b"><g id="c"><g><g><path class="p" d="M164.14,101.94c-2.09,3.01-4.91,5.37-8.46,7.07-3.56,1.71-7.39,2.56-11.5,2.56-7.65,0-14.02-2.61-19.11-7.82-5.09-5.21-7.63-11.65-7.63-19.3s2.6-14.29,7.8-19.51c5.2-5.23,11.7-7.84,19.51-7.84,4.01,0,7.69,.82,11.05,2.45,3.35,1.63,6.13,3.98,8.34,7.05v-8.37h6.57v52.02h-6.57v-8.31Zm0-18.05c0-5.5-1.98-10.3-5.93-14.4-3.95-4.1-8.51-6.15-13.67-6.15-5.6,0-10.37,2.05-14.31,6.15-3.94,4.1-5.91,9.18-5.91,15.24s1.96,10.66,5.89,14.63c3.92,3.97,8.64,5.96,14.14,5.96s9.94-2.1,13.88-6.29c3.94-4.19,5.91-9.24,5.91-15.15Z"/><path class="o" d="M0,58.23H6.57v27.62c0,7.09,1.15,12.12,3.46,15.06,2.31,2.95,6.1,4.42,11.38,4.42,3,0,5.64-.61,7.92-1.82,2.28-1.21,4.11-2.97,5.5-5.27,.79-1.36,1.36-2.96,1.71-4.8,.35-1.84,.52-5.05,.52-9.62v-25.59h6.67v52.02h-6.67v-5.63c-2.02,2.45-4.28,4.21-6.78,5.31-2.5,1.09-5.51,1.64-9.05,1.64-7.52,0-12.94-2.02-16.25-6.07-3.32-4.04-4.98-10.75-4.98-20.14v-27.15Z"/><path class="r" d="M51.21,110.25V21.67h6.67V110.25h-6.67Z"/><path class="q" d="M74.09,110.25v-45.26h-9.96v-6.76h9.96v-16.89h6.67v16.89h9.96v6.76h-9.96v45.26h-6.67Z"/><path class="t" d="M103.73,110.25h-6.77V58.23h6.3v5.98c1.64-2.31,3.43-4.01,5.38-5.09,1.94-1.08,4.21-1.65,6.8-1.71l.05,7.27c-4.2,.38-7.21,1.63-9.02,3.76-1.82,2.13-2.72,5.59-2.72,10.38v31.42Z"/></g><g><path class="s" d="M187.65,114.55c1.01,3.03,2.84,5.4,5.49,7.09,2.65,1.69,5.87,2.54,9.66,2.54,5.93,0,10.69-1.98,14.27-5.93,3.58-3.96,5.37-9.24,5.37-15.85v-1.37c-2.53,3.45-5.4,6.06-8.63,7.81-3.22,1.76-6.78,2.64-10.66,2.64-7.83,0-14.35-2.61-19.53-7.83-5.18-5.22-7.77-11.73-7.77-19.52s2.56-14.11,7.68-19.31c5.12-5.21,11.45-7.81,19.01-7.81,4.39,0,8.19,.79,11.4,2.37,3.21,1.58,6.04,4.05,8.51,7.41v-8.55h6.58v43.41c0,9.09-2.28,16.2-6.85,21.31-4.57,5.11-10.86,7.67-18.89,7.67-5.91,0-10.98-1.46-15.22-4.37-4.24-2.92-6.97-6.82-8.2-11.7h7.8Zm-4.72-30.72c0,6.08,1.94,11.16,5.81,15.26,3.87,4.1,8.55,6.14,14.02,6.14,5.15,0,9.71-2.05,13.66-6.16,3.95-4.11,5.93-8.94,5.93-14.48,0-5.92-1.94-10.97-5.84-15.16-3.89-4.19-8.47-6.28-13.75-6.28s-10.1,1.99-13.99,5.98c-3.89,3.98-5.83,8.89-5.83,14.71Z"/><path class="v" d="M289.93,86.39h-47.11c.41,5.66,2.47,10.23,6.17,13.71,3.7,3.49,8.32,5.23,13.86,5.23,3.92,0,7.45-1.01,10.58-3.03,3.13-2.02,5.55-4.83,7.26-8.44h7.6c-2.4,5.74-5.78,10.14-10.12,13.21-4.35,3.07-9.38,4.61-15.1,4.61-7.58,0-14-2.69-19.25-8.08-5.25-5.39-7.87-11.87-7.87-19.43s2.57-14.45,7.7-19.62c5.14-5.17,11.7-7.75,19.69-7.75s14.23,2.69,19.17,8.08c4.95,5.39,7.42,12.39,7.42,21.02v.49Zm-7.39-5.84c-1.27-5.8-3.59-10.17-6.98-13.11-3.39-2.93-7.8-4.4-13.24-4.4-5.06,0-9.35,1.58-12.86,4.73-3.51,3.15-5.66,7.41-6.45,12.78h39.53Z"/><path class="u" d="M342.94,58.23h7.66l16.13,42.23,16.88-42.23h7.78l-28.17,68.81h-7.16l6.97-16.92-20.09-51.89Z"/><path class="x" d="M333.91,81.11v29.35h6.57v-27.41c0-4.88-.26-8.57-.78-11.08-.52-2.5-1.39-4.68-2.59-6.54-1.74-2.64-4.11-4.67-7.1-6.09-2.99-1.42-6.4-2.13-10.24-2.13-3.49,0-6.58,.56-9.29,1.69-2.71,1.13-5.09,2.87-7.15,5.22v-5.89h-6.47v52.02h6.47v-25.31c0-4.51,.16-7.67,.5-9.48,.33-1.81,.91-3.43,1.74-4.85,1.33-2.27,3.15-4.01,5.45-5.23,2.3-1.21,4.97-1.82,8.02-1.82,5.2,0,8.98,1.39,11.34,4.16,2.36,2.78,3.55,7.24,3.55,13.39Z"/><path class="w" d="M391.77,58.23l13.51,21.7,4.43-4.82-10.43-16.87h-7.5Zm25.05,27.49l-4,5.67,11.64,18.86h7.6l-15.24-24.53Z"/><path class="y" d="M423.86,.28c-.35-.37-.88-.38-1.23,0-.35,.37-.4,.98-.16,1.47,14.39,30.1-2.89,55.69-20.06,81.43-7.94,11.9-9.71,13.82-13.41,19.23-25.12,36.7-9.86,63.09-9.63,63.3,.35,.33,.84,.31,1.18-.04,.33-.35,.41-.93,.2-1.4-11.97-27.75,9.49-52.74,23.21-72.19,4.75-6.74,5.66-7.46,10.98-16.05C444.49,28.35,424.15,.6,423.86,.28Z"/></g><g><path class="a`" d="M172.91,142.04v2.51c1.12-1.89,3.61-2.83,5.67-2.83s4,.83,5.82,2.83c.86,.8,1.69,2.72,1.69,4.86,0,4.35-3.56,7.58-7.69,7.58-2.11,0-4.45-1.04-5.38-3.07v7.85h-1.92v-19.73h1.82Zm11.25,7.34c0-3.18-2.49-5.76-5.59-5.76s-5.69,2.38-5.69,5.61c0,1.6,.39,2.94,1.51,4.08,1.07,1.15,2.52,1.79,4.06,1.79,3.17,0,5.72-2.43,5.72-5.71Z"/><path class="a`" d="M188.03,136.91h1.92v7.23c.83-1.6,2.6-2.43,4.31-2.43,1.85,0,3.64,.8,4.86,2.24,1.22,1.44,1.48,3.12,1.48,4.99v7.69h-1.92v-7.69c0-1.28-.1-2.43-.83-3.5-.83-1.2-2.23-1.84-3.66-1.84-1.33,0-2.7,.69-3.51,1.79-.73,1.02-.73,2.32-.73,3.55v7.69h-1.92v-19.73Z"/><path class="a`" d="M217.59,156.64h-1.85v-2.75c-1.09,2.06-3.28,3.1-5.51,3.1s-4.45-.96-6.26-3.1c-.52-.59-1.4-2.43-1.4-4.64,0-1.95,.96-3.95,1.48-4.43,2.16-2.38,4.16-3.1,6.13-3.1,2.23,0,4.5,1.01,5.56,3.1v-2.78h1.85v14.6Zm-13.1-7.23c0,3.2,2.7,5.69,5.74,5.69s5.51-2.62,5.51-5.66c0-3.23-2.39-5.82-5.56-5.82s-5.69,2.56-5.69,5.79Z"/><path class="a`" d="M220.08,142.04h1.82v2.11c.75-1.74,2.39-2.38,4.13-2.43v1.95c-1.04,.08-1.77,.32-2.57,1.02-1.33,1.15-1.46,2.14-1.46,3.79v8.17h-1.92v-14.6Z"/><path class="a`" d="M227.85,142.04h1.82v1.9c.7-1.52,2.21-2.22,3.79-2.22,1.87,0,3.46,.8,4.6,2.22,.13,.19,.23,.37,.36,.56,.08-.19,.18-.35,.29-.56,.99-1.42,2.83-2.22,4.5-2.22,1.53,0,3.02,.77,4.42,2.22,1.14,1.17,1.33,2.67,1.33,4.38v8.33h-1.92v-8.14c0-1.07-.08-2.24-.7-3.15-.78-1.12-1.9-1.74-3.22-1.74-1.22,0-2.44,.64-3.15,1.65-.62,.91-.6,2.16-.6,3.23v8.14h-1.92v-8.36c0-1.09-.05-1.95-.68-2.91-.73-1.07-1.92-1.76-3.2-1.76-1.2,0-2.39,.53-3.12,1.55-.65,.96-.67,2-.67,3.12v8.36h-1.92v-14.6Z"/><path class="a`" d="M265.93,156.64h-1.85v-2.75c-1.09,2.06-3.27,3.1-5.51,3.1s-4.45-.96-6.26-3.1c-.52-.59-1.4-2.43-1.4-4.64,0-1.95,.96-3.95,1.48-4.43,2.16-2.38,4.16-3.1,6.13-3.1,2.23,0,4.5,1.01,5.56,3.1v-2.78h1.85v14.6Zm-13.1-7.23c0,3.2,2.7,5.69,5.74,5.69s5.51-2.62,5.51-5.66c0-3.23-2.39-5.82-5.56-5.82s-5.69,2.56-5.69,5.79Z"/><path class="a`" d="M282.56,152.37c-1.27,2.86-3.85,4.62-6.91,4.62-4.24,0-7.77-3.2-7.77-7.66s3.59-7.61,7.69-7.61c3.01,0,5.93,1.81,7.02,4.75h-2.16c-.99-1.73-2.89-2.86-4.83-2.86-3.15,0-5.8,2.4-5.8,5.69s2.47,5.79,5.64,5.79c2.21,0,3.74-.93,4.99-2.72h2.13Z"/><path class="a`" d="M285.84,150.04c.1,2.78,2.73,5.04,5.35,5.04,2.11,0,4.24-1.2,5.1-3.2h2c-.99,2.94-3.9,5.1-6.91,5.1-4.16,0-7.46-3.36-7.46-7.63s3.28-7.63,7.41-7.63c2.24,0,4.29,1.04,5.72,2.83,1.32,1.68,1.61,3.39,1.66,5.5h-12.87Zm10.94-1.79c-.49-2.59-2.81-4.65-5.43-4.65s-5.04,1.95-5.51,4.65h10.94Z"/><path class="a`" d="M313.1,156.64h-1.82v-2.27c-.94,1.87-2.73,2.62-4.7,2.62-1.82,0-3.38-.67-4.99-2.62-.86-.93-1.01-2.7-1.01-4.62v-7.71h1.92v7.71c0,1.12,.05,2.24,.62,3.23,.78,1.39,2.16,2.11,3.72,2.11,1.38,0,2.65-.64,3.48-1.79,.73-1.04,.86-2.3,.86-3.55v-7.71h1.92v14.6Z"/><path class="a`" d="M317.24,143.82h-2.96v-1.79h2.96v-5.13h1.92v5.13h3.3v1.79h-3.3v12.81h-1.92v-12.81Z"/><path class="a`" d="M323.63,136.91h1.92v3.36h-1.92v-3.36Zm0,5.13h1.92v14.6h-1.92v-14.6Z"/><path class="a`" d="M342.19,152.37c-1.27,2.86-3.85,4.62-6.91,4.62-4.24,0-7.77-3.2-7.77-7.66s3.59-7.61,7.69-7.61c3.02,0,5.93,1.81,7.02,4.75h-2.16c-.99-1.73-2.88-2.86-4.83-2.86-3.15,0-5.8,2.4-5.8,5.69s2.47,5.79,5.64,5.79c2.21,0,3.74-.93,4.99-2.72h2.13Z"/><path class="a`" d="M358.56,156.64h-1.84v-2.75c-1.09,2.06-3.28,3.1-5.51,3.1s-4.44-.96-6.26-3.1c-.52-.59-1.4-2.43-1.4-4.64,0-1.95,.96-3.95,1.48-4.43,2.16-2.38,4.16-3.1,6.14-3.1,2.23,0,4.5,1.01,5.56,3.1v-2.78h1.84v14.6Zm-13.1-7.23c0,3.2,2.7,5.69,5.74,5.69s5.51-2.62,5.51-5.66c0-3.23-2.39-5.82-5.56-5.82s-5.69,2.56-5.69,5.79Z"/><path class="a`" d="M361.06,136.91h1.92v19.73h-1.92v-19.73Z"/></g></g></g></g></svg>