<?xml version="1.0" standalone="no"?>
<!DOCTYPE svg PUBLIC "-//W3C//DTD SVG 20010904//EN"
 "http://www.w3.org/TR/2001/REC-SVG-20010904/DTD/svg10.dtd">
<svg version="1.0" xmlns="http://www.w3.org/2000/svg"
 width="640.000000pt" height="640.000000pt" viewBox="0 0 640.000000 640.000000"
 preserveAspectRatio="xMidYMid meet">
<metadata>
Created by potrace 1.14, written by Peter Selinger 2001-2017
</metadata>
<g transform="translate(0.000000,640.000000) scale(0.100000,-0.100000)"
fill="#000000" stroke="none">
<path d="M3917 6262 c-10 -10 -17 -22 -17 -25 0 -4 20 -55 45 -113 49 -115
109 -303 120 -374 4 -25 8 -47 10 -50 5 -7 13 -65 24 -170 9 -81 7 -300 -3
-365 -3 -22 -8 -58 -11 -80 -24 -214 -127 -527 -272 -824 -99 -203 -392 -702
-411 -701 -4 1 -84 125 -178 278 l-170 277 -142 2 -142 1 22 -37 c13 -20 77
-123 143 -229 66 -106 125 -200 130 -210 6 -10 28 -47 51 -82 23 -36 64 -102
92 -146 l51 -82 -101 -148 c-184 -272 -224 -330 -405 -583 -237 -331 -387
-611 -492 -920 -31 -92 -85 -302 -95 -371 -31 -219 -38 -396 -23 -574 15 -178
74 -408 138 -542 32 -67 50 -82 74 -58 20 20 19 33 -5 90 -107 249 -139 581
-86 881 66 367 293 829 653 1325 26 36 55 76 63 88 8 12 29 41 46 64 264 354
558 785 686 1006 174 297 343 690 414 960 15 58 52 225 58 265 2 11 6 36 10
55 27 145 38 444 22 610 -25 255 -80 455 -181 654 -66 131 -91 158 -118 128z"/>
<path d="M3640 3018 c-30 -43 -63 -91 -72 -106 l-17 -27 210 -340 c116 -187
214 -344 218 -348 5 -5 70 -9 144 -10 158 -2 153 -9 82 102 -23 36 -144 231
-269 433 -125 203 -231 370 -234 372 -4 2 -32 -32 -62 -76z"/>
</g>
</svg>
