<svg width="182" height="53" viewBox="0 0 182 53" fill="none" xmlns="http://www.w3.org/2000/svg">
<path d="M155.5 53C170.136 53 182 41.1355 182 26.5C182 11.8645 170.136 0 155.5 0C140.864 0 129 11.8645 129 26.5C129 41.1355 140.864 53 155.5 53Z" fill="#673065"/>
<path d="M155.5 16V31" stroke="white" stroke-width="2" stroke-linecap="round"/>
<path d="M161.473 26L155.473 32" stroke="white" stroke-width="2" stroke-linecap="round"/>
<path d="M149.5 26L155.5 32" stroke="white" stroke-width="2" stroke-linecap="round"/>
<path d="M149 36.5H161.973" stroke="white" stroke-width="2" stroke-linecap="round"/>
<path d="M2.448 34C2.288 34 2.152 33.944 2.04 33.832C1.928 33.72 1.872 33.584 1.872 33.424V17.8C1.872 17.624 1.928 17.48 2.04 17.368C2.152 17.256 2.288 17.2 2.448 17.2H8.304C9.92 17.2 11.248 17.448 12.288 17.944C13.344 18.44 14.136 19.176 14.664 20.152C15.208 21.128 15.488 22.32 15.504 23.728C15.536 24.432 15.552 25.056 15.552 25.6C15.552 26.144 15.536 26.76 15.504 27.448C15.472 28.936 15.2 30.168 14.688 31.144C14.176 32.104 13.4 32.824 12.36 33.304C11.336 33.768 10.024 34 8.424 34H2.448ZM5.208 31.24H8.304C9.2 31.24 9.928 31.112 10.488 30.856C11.048 30.6 11.456 30.192 11.712 29.632C11.984 29.056 12.128 28.304 12.144 27.376C12.16 26.896 12.168 26.48 12.168 26.128C12.184 25.76 12.184 25.4 12.168 25.048C12.168 24.68 12.16 24.264 12.144 23.8C12.112 22.488 11.784 21.52 11.16 20.896C10.536 20.272 9.544 19.96 8.184 19.96H5.208V31.24ZM23.979 34.24C22.699 34.24 21.619 34.016 20.739 33.568C19.875 33.12 19.211 32.488 18.747 31.672C18.299 30.856 18.043 29.904 17.979 28.816C17.963 28.528 17.955 28.176 17.955 27.76C17.955 27.344 17.963 26.992 17.979 26.704C18.043 25.6 18.307 24.648 18.771 23.848C19.251 23.032 19.923 22.4 20.787 21.952C21.667 21.504 22.731 21.28 23.979 21.28C25.227 21.28 26.283 21.504 27.147 21.952C28.027 22.4 28.699 23.032 29.163 23.848C29.643 24.648 29.915 25.6 29.979 26.704C29.995 26.992 30.003 27.344 30.003 27.76C30.003 28.176 29.995 28.528 29.979 28.816C29.915 29.904 29.651 30.856 29.187 31.672C28.739 32.488 28.075 33.12 27.195 33.568C26.331 34.016 25.259 34.24 23.979 34.24ZM23.979 31.864C24.827 31.864 25.483 31.6 25.947 31.072C26.411 30.528 26.667 29.736 26.715 28.696C26.731 28.456 26.739 28.144 26.739 27.76C26.739 27.376 26.731 27.064 26.715 26.824C26.667 25.784 26.411 25 25.947 24.472C25.483 23.928 24.827 23.656 23.979 23.656C23.131 23.656 22.475 23.928 22.011 24.472C21.547 25 21.291 25.784 21.243 26.824C21.227 27.064 21.219 27.376 21.219 27.76C21.219 28.144 21.227 28.456 21.243 28.696C21.291 29.736 21.547 30.528 22.011 31.072C22.475 31.6 23.131 31.864 23.979 31.864ZM35.7186 34C35.4946 34 35.3266 33.944 35.2146 33.832C35.1026 33.72 35.0066 33.576 34.9266 33.4L31.4946 22.264C31.4786 22.184 31.4706 22.112 31.4706 22.048C31.4706 21.904 31.5186 21.784 31.6146 21.688C31.7266 21.576 31.8466 21.52 31.9746 21.52H33.7506C33.9426 21.52 34.0946 21.576 34.2066 21.688C34.3186 21.784 34.3826 21.88 34.3986 21.976L36.7506 29.92L39.2466 22.048C39.2786 21.936 39.3506 21.824 39.4626 21.712C39.5746 21.584 39.7426 21.52 39.9666 21.52H41.1666C41.3906 21.52 41.5586 21.584 41.6706 21.712C41.7826 21.824 41.8546 21.936 41.8866 22.048L44.3826 29.92L46.7346 21.976C46.7506 21.88 46.8066 21.784 46.9026 21.688C47.0146 21.576 47.1666 21.52 47.3586 21.52H49.1346C49.2786 21.52 49.3986 21.576 49.4946 21.688C49.6066 21.784 49.6626 21.904 49.6626 22.048C49.6626 22.112 49.6466 22.184 49.6146 22.264L46.1826 33.4C46.1346 33.576 46.0466 33.72 45.9186 33.832C45.8066 33.944 45.6386 34 45.4146 34H43.8546C43.6466 34 43.4706 33.944 43.3266 33.832C43.1986 33.72 43.1106 33.576 43.0626 33.4L40.5666 25.816L38.0706 33.4C38.0066 33.576 37.9106 33.72 37.7826 33.832C37.6706 33.944 37.4946 34 37.2546 34H35.7186ZM52.5741 34C52.4141 34 52.2781 33.944 52.1661 33.832C52.0541 33.72 51.9981 33.584 51.9981 33.424V22.096C51.9981 21.936 52.0541 21.8 52.1661 21.688C52.2781 21.576 52.4141 21.52 52.5741 21.52H54.5421C54.7021 21.52 54.8381 21.576 54.9501 21.688C55.0621 21.8 55.1181 21.936 55.1181 22.096V23.08C55.5341 22.568 56.0621 22.144 56.7021 21.808C57.3581 21.456 58.1661 21.28 59.1261 21.28C60.1021 21.28 60.9501 21.504 61.6701 21.952C62.3901 22.384 62.9421 23 63.3261 23.8C63.7261 24.6 63.9261 25.56 63.9261 26.68V33.424C63.9261 33.584 63.8701 33.72 63.7581 33.832C63.6461 33.944 63.5101 34 63.3501 34H61.2381C61.0781 34 60.9421 33.944 60.8301 33.832C60.7181 33.72 60.6621 33.584 60.6621 33.424V26.824C60.6621 25.896 60.4301 25.168 59.9661 24.64C59.5181 24.112 58.8621 23.848 57.9981 23.848C57.1661 23.848 56.5021 24.112 56.0061 24.64C55.5101 25.168 55.2621 25.896 55.2621 26.824V33.424C55.2621 33.584 55.2061 33.72 55.0941 33.832C54.9821 33.944 54.8461 34 54.6861 34H52.5741ZM67.5746 34C67.4146 34 67.2786 33.944 67.1666 33.832C67.0546 33.72 66.9986 33.584 66.9986 33.424V17.536C66.9986 17.376 67.0546 17.24 67.1666 17.128C67.2786 17.016 67.4146 16.96 67.5746 16.96H69.5666C69.7266 16.96 69.8626 17.016 69.9746 17.128C70.0866 17.24 70.1426 17.376 70.1426 17.536V33.424C70.1426 33.584 70.0866 33.72 69.9746 33.832C69.8626 33.944 69.7266 34 69.5666 34H67.5746ZM78.8462 34.24C77.5662 34.24 76.4862 34.016 75.6062 33.568C74.7422 33.12 74.0782 32.488 73.6142 31.672C73.1662 30.856 72.9102 29.904 72.8462 28.816C72.8302 28.528 72.8222 28.176 72.8222 27.76C72.8222 27.344 72.8302 26.992 72.8462 26.704C72.9102 25.6 73.1742 24.648 73.6382 23.848C74.1182 23.032 74.7902 22.4 75.6542 21.952C76.5342 21.504 77.5982 21.28 78.8462 21.28C80.0942 21.28 81.1502 21.504 82.0142 21.952C82.8942 22.4 83.5662 23.032 84.0302 23.848C84.5102 24.648 84.7822 25.6 84.8462 26.704C84.8622 26.992 84.8702 27.344 84.8702 27.76C84.8702 28.176 84.8622 28.528 84.8462 28.816C84.7822 29.904 84.5182 30.856 84.0542 31.672C83.6062 32.488 82.9422 33.12 82.0622 33.568C81.1982 34.016 80.1262 34.24 78.8462 34.24ZM78.8462 31.864C79.6942 31.864 80.3502 31.6 80.8142 31.072C81.2782 30.528 81.5342 29.736 81.5822 28.696C81.5982 28.456 81.6062 28.144 81.6062 27.76C81.6062 27.376 81.5982 27.064 81.5822 26.824C81.5342 25.784 81.2782 25 80.8142 24.472C80.3502 23.928 79.6942 23.656 78.8462 23.656C77.9982 23.656 77.3422 23.928 76.8782 24.472C76.4142 25 76.1582 25.784 76.1102 26.824C76.0942 27.064 76.0862 27.376 76.0862 27.76C76.0862 28.144 76.0942 28.456 76.1102 28.696C76.1582 29.736 76.4142 30.528 76.8782 31.072C77.3422 31.6 77.9982 31.864 78.8462 31.864ZM91.1533 34.24C90.3213 34.24 89.5693 34.08 88.8973 33.76C88.2253 33.424 87.6893 32.984 87.2893 32.44C86.9053 31.88 86.7133 31.256 86.7133 30.568C86.7133 29.448 87.1693 28.56 88.0813 27.904C88.9933 27.232 90.1853 26.784 91.6573 26.56L94.9453 26.08V25.576C94.9453 24.904 94.7773 24.384 94.4413 24.016C94.1053 23.648 93.5293 23.464 92.7133 23.464C92.1373 23.464 91.6653 23.584 91.2973 23.824C90.9453 24.048 90.6813 24.352 90.5053 24.736C90.3773 24.944 90.1933 25.048 89.9533 25.048H88.0573C87.8813 25.048 87.7453 25 87.6493 24.904C87.5693 24.808 87.5293 24.68 87.5293 24.52C87.5453 24.264 87.6493 23.952 87.8413 23.584C88.0493 23.216 88.3533 22.864 88.7533 22.528C89.1693 22.176 89.7053 21.88 90.3613 21.64C91.0173 21.4 91.8093 21.28 92.7373 21.28C93.7453 21.28 94.5933 21.408 95.2813 21.664C95.9853 21.904 96.5453 22.232 96.9613 22.648C97.3773 23.064 97.6813 23.552 97.8733 24.112C98.0653 24.672 98.1613 25.264 98.1613 25.888V33.424C98.1613 33.584 98.1053 33.72 97.9933 33.832C97.8813 33.944 97.7453 34 97.5853 34H95.6413C95.4653 34 95.3213 33.944 95.2093 33.832C95.1133 33.72 95.0653 33.584 95.0653 33.424V32.488C94.8573 32.776 94.5773 33.056 94.2253 33.328C93.8733 33.6 93.4413 33.824 92.9293 34C92.4333 34.16 91.8413 34.24 91.1533 34.24ZM91.9693 31.96C92.5293 31.96 93.0333 31.84 93.4813 31.6C93.9453 31.36 94.3053 30.992 94.5613 30.496C94.8333 29.984 94.9693 29.344 94.9693 28.576V28.072L92.5693 28.456C91.6253 28.6 90.9213 28.832 90.4573 29.152C89.9933 29.472 89.7613 29.864 89.7613 30.328C89.7613 30.68 89.8653 30.984 90.0733 31.24C90.2973 31.48 90.5773 31.664 90.9133 31.792C91.2493 31.904 91.6013 31.96 91.9693 31.96ZM105.872 34.24C105.04 34.24 104.304 34.104 103.664 33.832C103.04 33.544 102.52 33.144 102.104 32.632C101.688 32.12 101.368 31.52 101.144 30.832C100.92 30.128 100.792 29.36 100.76 28.528C100.744 28.24 100.736 27.984 100.736 27.76C100.736 27.52 100.744 27.256 100.76 26.968C100.792 26.168 100.912 25.424 101.12 24.736C101.344 24.048 101.664 23.448 102.08 22.936C102.512 22.408 103.04 22 103.664 21.712C104.304 21.424 105.04 21.28 105.872 21.28C106.736 21.28 107.464 21.432 108.056 21.736C108.664 22.024 109.168 22.4 109.568 22.864V17.536C109.568 17.376 109.616 17.24 109.712 17.128C109.824 17.016 109.968 16.96 110.144 16.96H112.184C112.344 16.96 112.48 17.016 112.592 17.128C112.704 17.24 112.76 17.376 112.76 17.536V33.424C112.76 33.584 112.704 33.72 112.592 33.832C112.48 33.944 112.344 34 112.184 34H110.288C110.112 34 109.968 33.944 109.856 33.832C109.76 33.72 109.712 33.584 109.712 33.424V32.536C109.312 33.032 108.8 33.44 108.176 33.76C107.568 34.08 106.8 34.24 105.872 34.24ZM106.76 31.672C107.432 31.672 107.968 31.52 108.368 31.216C108.768 30.912 109.064 30.528 109.256 30.064C109.448 29.584 109.552 29.096 109.568 28.6C109.584 28.312 109.592 28.008 109.592 27.688C109.592 27.352 109.584 27.04 109.568 26.752C109.552 26.272 109.44 25.816 109.232 25.384C109.024 24.936 108.72 24.568 108.32 24.28C107.92 23.992 107.4 23.848 106.76 23.848C106.088 23.848 105.552 24 105.152 24.304C104.768 24.592 104.488 24.976 104.312 25.456C104.136 25.936 104.032 26.464 104 27.04C103.984 27.52 103.984 28 104 28.48C104.032 29.056 104.136 29.584 104.312 30.064C104.488 30.544 104.768 30.936 105.152 31.24C105.552 31.528 106.088 31.672 106.76 31.672Z" fill="#673065"/>
</svg>
