<svg width="96" height="96" viewBox="0 0 96 96" fill="none" xmlns="http://www.w3.org/2000/svg">
<path d="M81 91.08C75.807 91.08 71.517 87.132 70.977 82.08H58.023C57.483 87.132 53.196 91.08 48 91.08C42.441 91.08 37.92 86.556 37.92 81C37.92 75.807 41.868 71.517 46.92 70.977V58.023C41.868 57.483 37.92 53.196 37.92 48C37.92 42.807 41.868 38.517 46.92 37.977V25.023C42.222 24.522 38.481 20.778 37.977 16.08H25.023C24.483 21.132 20.193 25.08 15 25.08C9.44101 25.08 4.92001 20.559 4.92001 15C4.92001 9.44101 9.44101 4.92001 15 4.92001C20.193 4.92001 24.483 8.86801 25.023 13.92H37.977C38.517 8.86801 42.807 4.92001 48 4.92001C53.559 4.92001 58.08 9.44101 58.08 15C58.08 20.193 54.132 24.483 49.08 25.023V37.977C54.132 38.517 58.08 42.807 58.08 48C58.08 53.193 54.132 57.483 49.08 58.023V70.977C53.778 71.478 57.522 75.222 58.023 79.917H70.977C71.517 74.865 75.804 70.917 81 70.917C86.559 70.917 91.08 75.441 91.08 80.997C91.08 86.553 86.559 91.08 81 91.08ZM81 73.08C76.632 73.08 73.08 76.632 73.08 81C73.08 85.368 76.632 88.92 81 88.92C85.368 88.92 88.92 85.368 88.92 81C88.92 76.632 85.368 73.08 81 73.08ZM48 73.08C43.632 73.08 40.08 76.632 40.08 81C40.08 85.368 43.635 88.92 48 88.92C52.368 88.92 55.92 85.368 55.92 81C55.92 76.632 52.368 73.08 48 73.08ZM48 40.08C43.632 40.08 40.08 43.635 40.08 48C40.08 52.368 43.635 55.92 48 55.92C52.368 55.92 55.92 52.368 55.92 48C55.92 43.632 52.368 40.08 48 40.08ZM48 7.08001C43.632 7.08001 40.08 10.635 40.08 15C40.08 19.365 43.632 22.92 48 22.92C52.368 22.92 55.92 19.365 55.92 15C55.92 10.635 52.368 7.08001 48 7.08001ZM15 7.08001C10.632 7.08001 7.08001 10.632 7.08001 15C7.08001 19.368 10.632 22.92 15 22.92C19.368 22.92 22.92 19.368 22.92 15C22.92 10.632 19.368 7.08001 15 7.08001ZM15 91.08C9.44101 91.08 4.92001 86.556 4.92001 81C4.92001 75.444 9.44101 70.92 15 70.92C20.559 70.92 25.08 75.441 25.08 81C25.08 86.559 20.559 91.08 15 91.08ZM15 73.08C10.632 73.08 7.08001 76.632 7.08001 81C7.08001 85.368 10.632 88.92 15 88.92C19.368 88.92 22.92 85.368 22.92 81C22.92 76.632 19.368 73.08 15 73.08ZM81 58.08C75.441 58.08 70.92 53.556 70.92 48C70.92 42.444 75.444 37.92 81 37.92C86.556 37.92 91.08 42.441 91.08 48C91.08 53.559 86.559 58.08 81 58.08ZM81 40.08C76.632 40.08 73.08 43.635 73.08 48C73.08 52.368 76.632 55.92 81 55.92C85.368 55.92 88.92 52.368 88.92 48C88.92 43.632 85.368 40.08 81 40.08ZM15 58.08C9.44101 58.08 4.92001 53.556 4.92001 48C4.92001 42.444 9.44101 37.92 15 37.92C20.559 37.92 25.08 42.441 25.08 48C25.08 53.559 20.559 58.08 15 58.08ZM15 40.08C10.632 40.08 7.08001 43.635 7.08001 48C7.08001 52.368 10.635 55.92 15 55.92C19.365 55.92 22.92 52.368 22.92 48C22.92 43.632 19.368 40.08 15 40.08ZM81 25.08C75.441 25.08 70.92 20.559 70.92 15C70.92 9.44101 75.441 4.92001 81 4.92001C86.559 4.92001 91.08 9.44101 91.08 15C91.08 20.559 86.559 25.08 81 25.08ZM81 7.08001C76.632 7.08001 73.08 10.635 73.08 15C73.08 19.365 76.632 22.92 81 22.92C85.368 22.92 88.92 19.368 88.92 15C88.92 10.632 85.368 7.08001 81 7.08001Z" fill="#83A9F7"/>
</svg>
