<?xml version="1.0" encoding="UTF-8"?><svg id="a" xmlns="http://www.w3.org/2000/svg" xmlns:xlink="http://www.w3.org/1999/xlink" viewBox="0 0 381.14 269.49"><defs><style>.d{fill:url(#c);}.e,.f{fill:#001b2b;}.g{fill:url(#b);}.f{fill-rule:evenodd;}</style><linearGradient id="b" x1="42.42" y1="112.53" x2="338.73" y2="112.53" gradientTransform="matrix(1, 0, 0, 1, 0, 0)" gradientUnits="userSpaceOnUse"><stop offset="0" stop-color="#007b84" stop-opacity=".2"/><stop offset=".5" stop-color="#007b84"/><stop offset="1" stop-color="#007b84" stop-opacity=".2"/></linearGradient><linearGradient id="c" x1="43" y1="102.12" x2="325.96" y2="102.12" gradientTransform="matrix(1, 0, 0, 1, 0, 0)" gradientUnits="userSpaceOnUse"><stop offset="0" stop-color="#72e8dc" stop-opacity=".2"/><stop offset=".5" stop-color="#72e8dc"/><stop offset="1" stop-color="#72e8dc" stop-opacity=".2"/></linearGradient></defs><g><path class="e" d="M48.65,163.27h16.62v4.49h-16.62v13.42h18.31v4.49h-23.03v-39.32h22.69v4.49h-17.97v12.41Z"/><path class="e" d="M96.21,146.37l21.06,31.45v-31.45h4.72v39.32h-4.89l-21.06-31.45v31.45h-4.72v-39.32h4.89Z"/><path class="e" d="M166.06,164.11h14.49v17.07s-5.22,5.17-15.45,5.17c-11.34,0-19.55-8.99-19.55-20.33s8.2-20.33,19.55-20.33c10.17,0,14.38,5.56,14.38,5.56l-3.37,3.31s-3.76-4.38-11.01-4.38c-8.54,0-14.49,7.47-14.49,15.84s5.95,15.84,14.49,15.84c7.19,0,10.78-2.87,10.78-2.87v-10.39h-9.83v-4.49Z"/><path class="e" d="M216.43,146.37h4.38l15.33,39.32h-4.94l-4.1-10.62h-16.96l-4.1,10.62h-5.05l15.44-39.32Zm-4.55,24.21h13.48l-6.74-17.47-6.74,17.47Z"/><path class="e" d="M275.45,164.11h14.49v17.07s-5.22,5.17-15.44,5.17c-11.34,0-19.55-8.99-19.55-20.33s8.2-20.33,19.55-20.33c10.16,0,14.38,5.56,14.38,5.56l-3.37,3.31s-3.76-4.38-11.01-4.38c-8.54,0-14.49,7.47-14.49,15.84s5.95,15.84,14.49,15.84c7.19,0,10.78-2.87,10.78-2.87v-10.39h-9.83v-4.49Z"/><path class="e" d="M319.25,163.27h16.62v4.49h-16.62v13.42h18.31v4.49h-23.03v-39.32h22.69v4.49h-17.97v12.41Z"/></g><path class="g" d="M229.41,137.43c-29.62,0-55.5-10.62-83.8-25.76-11.02-5.9-23.17-9.33-36.1-10.2-10.37-.7-21.27,.24-32.4,2.8-19.01,4.36-32.25,10.09-32.38,10.17-.73,.43-1.68,.18-2.11-.55-.43-.73-.18-1.68,.55-2.11,.55-.32,13.71-7.94,33.15-12.41,11.43-2.63,22.65-3.6,33.33-2.89,13.39,.89,25.97,4.44,37.4,10.56,27.93,14.94,53.44,28.28,82.35,28.28,.4,0,.8,0,1.2,0,15.08-.18,30.45-3.69,47-10.74,17.82-7.59,37-20.22,58.64-36.61,.68-.51,1.64-.38,2.16,.3,.51,.68,.38,1.64-.3,2.16-21.84,16.55-41.24,28.34-59.3,36.03-16.93,7.21-32.68,10.8-48.17,10.99-.41,0-.83,0-1.24,0Z"/><path class="d" d="M296.71,121.1c-2.86,0-5.7-.25-8.55-.76-13.65-2.44-24.92-10.29-35.82-17.89-9.36-6.53-19.36-13.65-29.05-15.97-16.17-3.87-34.17,1.58-55.78,16.2-1.42,.96-2.88,2-4.43,3.1-7.8,5.56-16.63,11.85-27.45,13.35-1.55,.21-3.1,.32-4.65,.32-11.05,0-21.99-5.48-33.31-16.65-10.65-10.51-21.11-15.3-31.08-14.21-13.68,1.48-21.77,13.7-21.85,13.82-.29,.45-.89,.57-1.33,.28-.45-.29-.57-.89-.28-1.33,.09-.13,2.18-3.33,6.09-6.75,3.62-3.17,9.53-7.11,17.17-7.94,10.57-1.15,21.55,2.28,32.64,13.22,12.45,12.29,24.34,17.45,36.34,15.79,10.34-1.43,18.98-7.58,26.59-13.01,1.56-1.11,3.03-2.16,4.47-3.13,22.07-14.93,41.74-18.94,58.46-14.93,10.04,2.4,19.03,8.67,28.54,15.3,10.73,7.48,21.82,15.22,35.05,17.58,7.12,1.27,15.93,.51,21.05-1.16,5.82-1.91,8.93-3.52,14.89-7.67,.44-.3,1.03-.21,1.34,.22,.31,.43,.2,1.02-.22,1.34-7.08,5.48-10.35,7.21-15.88,8.93-4.7,1.46-8.4,1.96-12.97,1.96Z"/><path class="f" d="M284.64,118.71c0-3.37,2.74-6.1,6.12-6.1s6.12,2.73,6.12,6.1-2.74,6.1-6.12,6.1-6.12-2.73-6.12-6.1h0Z"/></svg>