<svg width="96" height="96" viewBox="0 0 96 96" fill="none" xmlns="http://www.w3.org/2000/svg">
<path d="M93 31.08H64.92V3.00001H67.083V27.393L92.238 2.23801L93.768 3.76501L68.607 28.92H93V31.08ZM64.08 48C64.08 39.132 56.865 31.92 48 31.92C39.132 31.92 31.92 39.132 31.92 48C31.92 56.865 39.132 64.08 48 64.08C56.865 64.08 64.08 56.865 64.08 48ZM61.92 48C61.92 55.677 55.677 61.92 48 61.92C40.323 61.92 34.08 55.677 34.08 48C34.08 40.323 40.326 34.08 48 34.08C55.674 34.08 61.92 40.323 61.92 48ZM94.08 48C94.08 43.941 93.507 39.807 92.373 35.712L90.294 36.285C91.371 40.194 91.92 44.133 91.92 47.997C91.92 72.213 72.219 91.917 48 91.917C23.781 91.92 4.07998 72.216 4.07998 48C4.07998 23.781 23.781 4.08001 48 4.08001C51.861 4.08001 55.803 4.62901 59.712 5.70901L60.285 3.62701C56.187 2.49601 52.056 1.92001 48 1.92001C22.59 1.92001 1.91998 22.59 1.91998 48C1.91998 73.41 22.59 94.08 48 94.08C73.41 94.08 94.08 73.41 94.08 48ZM79.08 48C79.08 43.701 78.204 39.516 76.476 35.568L74.496 36.432C76.104 40.11 76.92 44.001 76.92 48C76.92 63.945 63.948 76.92 48 76.92C32.052 76.92 19.08 63.945 19.08 48C19.08 32.055 32.055 19.08 48 19.08C51.999 19.08 55.893 19.896 59.565 21.504L60.432 19.527C56.481 17.796 52.302 16.92 48 16.92C30.864 16.92 16.92 30.864 16.92 48C16.92 65.139 30.861 79.08 48 79.08C65.139 79.08 79.08 65.139 79.08 48ZM48 45C46.344 45 45 46.344 45 48C45 49.656 46.344 51 48 51C49.656 51 51 49.656 51 48C51 46.344 49.656 45 48 45Z" fill="#83A9F7"/>
</svg>
