<svg width="160" height="40" viewBox="0 0 160 40" fill="none" xmlns="http://www.w3.org/2000/svg">
<g clip-path="url(#clip0_49_421)">
<path d="M10.4709 29.5512H40.1021V39.9955H0V0H10.4709V29.5512ZM10.4709 0L40.1021 29.5512V0H10.4709Z" fill="#FFF200"/>
<path d="M56.0982 26.8765H66.0335V29.5511H53.0677V9.20754H56.1028L56.0982 26.8765ZM93.9604 14.6719C91.6841 14.6719 89.766 16.0084 89.1833 17.6644C88.6005 15.7466 86.8235 14.6719 84.4334 14.6719C82.277 14.6719 80.7049 15.8631 80.0933 17.5191V14.9034H77.2525V22.8381C77.2525 25.3946 75.6212 27.2549 73.3191 27.2549C71.2507 27.2549 69.8819 25.6853 69.8819 23.3603V14.9034H67.0548V23.9158C67.0548 27.3972 69.2112 29.7858 72.533 29.7858C74.7182 29.7858 76.4664 28.7989 77.2525 26.9673V29.5542H80.0933V21.0398C80.0933 18.7148 81.4333 17.1467 83.6762 17.1467C85.5989 17.1467 86.7643 18.7148 86.7643 21.0398V29.5557H89.5915V21.0398C89.5915 18.7148 90.9315 17.1467 93.1744 17.1467C95.1259 17.1467 96.2913 18.7148 96.2913 21.0398V29.5557H99.1185V20.2512C99.1185 16.8515 97.1366 14.6719 93.9604 14.6719ZM111.937 14.9034H114.763V29.5511H111.937V27.5743C111.237 28.8246 109.372 29.7827 107.304 29.7827C102.788 29.7827 100.254 26.5874 100.254 22.2281C100.254 17.8687 102.788 14.6719 107.275 14.6719C109.198 14.6719 111.033 15.5725 111.937 16.8515V14.9034ZM112.145 22.2281C112.145 19.1765 110.368 17.1422 107.629 17.1422C104.92 17.1422 103.141 19.1765 103.141 22.2281C103.141 25.2796 104.92 27.3124 107.629 27.3124C110.363 27.3124 112.145 25.2781 112.145 22.2281ZM123.939 14.6719C121.754 14.6719 120.006 15.6588 119.22 17.4903V14.9034H116.394V29.5511H119.22V21.6165C119.22 19.06 120.851 17.1997 123.153 17.1997C125.221 17.1997 126.592 18.7693 126.592 21.0943V29.5511H129.417V20.5418C129.413 17.0544 127.256 14.6719 123.935 14.6719H123.939ZM130.81 12.3181H133.956V8.77917H130.81V12.3181ZM130.985 29.5511H133.811V14.9034H130.986L130.985 29.5511ZM141.24 10.3125H138.416V14.9034H135.059V17.345H138.419V24.7619C138.419 27.7544 140.313 29.5572 143.284 29.5572H145.587V27.1096H143.515C142.087 27.1096 141.239 26.2377 141.239 24.6681V17.345H145.58V14.9034H141.242L141.24 10.3125ZM157.085 14.9034L153.212 25.8835L149.367 14.9034H146.452L151.904 29.6965L149.919 35.4802H152.629L154.843 29.0274L160.003 14.9034H157.085Z" fill="white"/>
</g>
<defs>
<clipPath id="clip0_49_421">
<rect width="160" height="40" fill="white"/>
</clipPath>
</defs>
</svg>
