<svg width="96" height="96" viewBox="0 0 96 96" fill="none" xmlns="http://www.w3.org/2000/svg">
<path d="M73.08 93H70.92V70.5C70.92 59.844 63.678 50.688 53.304 48.228C52.854 48.12 52.521 47.739 52.479 47.28C52.434 46.818 52.692 46.38 53.115 46.191C57.666 44.166 60.603 39.648 60.603 34.683C60.603 27.735 54.951 22.08 48.003 22.08C41.055 22.08 35.4 27.732 35.4 34.683C35.4 39.648 38.34 44.169 42.888 46.191C43.311 46.38 43.569 46.818 43.524 47.28C43.482 47.739 43.149 48.123 42.699 48.228C32.325 50.688 25.083 59.844 25.083 70.5V93H22.92V70.5C22.92 59.724 29.691 50.346 39.675 46.863C35.697 44.142 33.237 39.6 33.237 34.68C33.237 28.788 36.708 23.688 41.715 21.324C42.303 19.851 42.6 18.291 42.6 16.683C42.6 9.73501 36.948 4.08 30 4.08C23.052 4.08 17.397 9.73201 17.397 16.683C17.397 21.651 20.337 26.169 24.885 28.191C25.311 28.38 25.563 28.818 25.521 29.28C25.479 29.739 25.146 30.123 24.696 30.228C14.322 32.688 7.07998 41.844 7.07998 52.5V75H4.91998V52.5C4.91998 41.724 11.691 32.346 21.675 28.863C17.697 26.142 15.24 21.6 15.24 16.683C15.24 8.54401 21.861 1.923 30 1.923C38.139 1.923 44.76 8.54401 44.76 16.683C44.76 17.949 44.604 19.191 44.289 20.394C46.662 19.779 49.338 19.779 51.708 20.394C51.396 19.191 51.237 17.949 51.237 16.683C51.237 8.54401 57.861 1.923 66 1.923C74.139 1.923 80.763 8.54401 80.763 16.683C80.763 21.603 78.303 26.145 74.325 28.866C84.312 32.349 91.083 41.727 91.083 52.503V75H88.92V52.5C88.92 41.844 81.678 32.688 71.304 30.228C70.854 30.12 70.521 29.739 70.479 29.28C70.434 28.818 70.692 28.38 71.115 28.191C75.663 26.166 78.6 21.648 78.6 16.683C78.6 9.73501 72.948 4.08 66 4.08C59.052 4.08 53.4 9.73201 53.4 16.683C53.4 18.291 53.697 19.851 54.285 21.327C59.292 23.694 62.763 28.791 62.763 34.683C62.763 39.603 60.303 44.145 56.325 46.866C66.312 50.349 73.083 59.727 73.083 70.503L73.08 93Z" fill="#83A9F7"/>
</svg>
