<?xml version="1.0" encoding="UTF-8"?><svg id="a" xmlns="http://www.w3.org/2000/svg" viewBox="0 0 381.14 269.49"><defs><style>.b{fill:#72e8dc;}.c,.d{fill:#001b2b;}.e{fill:#007b84;}.d{fill-rule:evenodd;}</style></defs><path class="b" d="M264.09,48.74c-21.58-20.02-50.24-30.56-78.7-28.93-26.79,1.53-51.72,12.98-76.23,35.02-17.67,16.14-46.79,48.35-43.3,82.65,2.57,28.51,29.19,59.21,64.72,74.65,16.69,7.45,35.28,11.38,53.75,11.38s36.07-3.81,51.84-11c33.75-15.41,59.44-46.3,63.93-76.86,4.21-28.99-9.93-63.11-36.01-86.91ZM131.74,209.49c-34.62-15.05-60.53-44.77-63.01-72.29-3.36-33.06,25.1-64.47,42.36-80.24,24-21.58,48.36-32.79,74.46-34.27,1.86-.11,3.75-.16,5.62-.16,25.65,0,51.48,10.3,70.87,28.25l.09,.08,.02,.02,.08,.07c25.35,23.17,39.09,56.24,35.02,84.28-4.36,29.63-29.38,59.63-62.28,74.65-31.67,14.47-70.26,14.32-103.23-.39Z"/><g><path class="e" d="M191.07,249.86c-8.43,0-16.7-1-24.86-2.99-27.52-6.69-51.71-25.07-66.38-50.44-17.85-30.29-21.33-66.92-8.86-93.33,13.2-27.83,46.67-49.82,83.28-54.73,35.19-4.71,72.71,6.89,100.39,31.04,29.28,25.05,45.62,62.04,39.74,89.94-6.7,33.68-43.84,55.95-65.38,66.23-20.42,9.54-39.57,14.28-57.94,14.28Zm-1.19-200.63c-5.15,0-10.29,.34-15.38,1.02-36,4.83-68.88,26.39-81.82,53.66-12.21,25.86-8.77,61.8,8.78,91.56h0c14.41,24.93,38.18,42.99,65.19,49.56,25.49,6.22,52.16,2.57,81.54-11.16,21.21-10.12,57.79-32.02,64.33-64.9,5.75-27.26-10.34-63.49-39.12-88.12-23.27-20.3-53.6-31.61-83.52-31.61Z"/><g><path class="d" d="M292.36,104.9c0-2.35,1.91-4.26,4.27-4.26s4.27,1.91,4.27,4.26-1.91,4.26-4.27,4.26-4.27-1.91-4.27-4.26h0Z"/><path class="d" d="M92.22,188.18c0-2.35,1.91-4.26,4.27-4.26s4.27,1.91,4.27,4.26-1.91,4.26-4.27,4.26-4.27-1.91-4.27-4.26h0Z"/></g></g><g><path class="c" d="M115.06,133.53c-4-1.84-7.53-3.68-7.53-8.35,0-3.21,2.67-7.21,7.92-7.21s7.8,4,7.8,4l-2.47,2s-1.92-2.86-5.33-2.86c-3.02,0-4.63,2.12-4.63,4.08,0,2.78,2.35,3.88,6.11,5.61,4.19,1.92,6.82,3.68,6.82,8.11s-3.68,7.45-8.51,7.45c-6.51,0-8.74-5.72-8.74-5.72l2.74-1.65s1.65,4.23,6,4.23c2.63,0,5.13-1.49,5.13-4.31s-2.27-3.96-5.33-5.37Z"/><path class="c" d="M166.16,132.16c0,7.92-5.64,14.19-13.56,14.19s-13.56-6.27-13.56-14.19,5.64-14.19,13.56-14.19,13.56,6.27,13.56,14.19Zm-3.53,0c0-5.84-4.04-11.05-10.03-11.05s-10.03,5.21-10.03,11.05,4.04,11.05,10.03,11.05,10.03-5.21,10.03-11.05Z"/><path class="c" d="M186.02,118.44l14.7,21.95v-21.95h3.29v27.44h-3.41l-14.7-21.95v21.95h-3.29v-27.44h3.41Z"/><path class="c" d="M230.07,118.44h3.06l10.7,27.44h-3.45l-2.86-7.41h-11.84l-2.86,7.41h-3.53l10.78-27.44Zm-3.17,16.89h9.41l-4.7-12.19-4.7,12.19Z"/><path class="c" d="M259.1,118.44h7.13c5.45,0,9.17,3.21,9.17,8.11,0,6.51-5.92,7.72-6.7,7.84l7.6,11.48h-3.96l-7.41-11.21h-2.55v11.21h-3.29v-27.44Zm13.01,8.11c0-3.02-2-4.98-5.68-4.98h-4.04v9.96h4.04c3.68,0,5.68-1.96,5.68-4.98Z"/></g></svg>