<svg width="96" height="96" viewBox="0 0 96 96" fill="none" xmlns="http://www.w3.org/2000/svg">
<path d="M46.305 49.182C46.263 49.641 45.93 50.025 45.48 50.13C40.536 51.303 37.083 55.668 37.083 60.753V72H34.923V60.753C34.923 55.455 38.052 50.811 42.765 48.765C41.091 47.283 40.086 45.135 40.086 42.831C40.086 39.753 41.853 37.08 44.424 35.772C44.646 35.154 44.757 34.506 44.757 33.837C44.757 30.66 42.174 28.077 38.997 28.077C35.82 28.077 33.237 30.66 33.237 33.837C33.237 36.108 34.581 38.172 36.663 39.096C37.086 39.285 37.341 39.72 37.299 40.182C37.257 40.644 36.924 41.025 36.474 41.133C31.533 42.306 28.083 46.674 28.083 51.756V63H25.92V51.759C25.92 46.464 29.046 41.817 33.756 39.771C32.082 38.292 31.077 36.144 31.077 33.837C31.077 29.469 34.629 25.917 38.997 25.917C43.365 25.917 46.917 29.469 46.917 33.837C46.917 34.23 46.89 34.62 46.833 35.004C47.595 34.893 48.405 34.893 49.167 35.004C49.11 34.62 49.083 34.233 49.083 33.837C49.083 29.469 52.635 25.917 57.003 25.917C61.368 25.917 64.923 29.469 64.923 33.837C64.923 36.141 63.918 38.289 62.241 39.771C66.951 41.817 70.08 46.461 70.08 51.759V63H67.92V51.759C67.92 46.677 64.47 42.309 59.529 41.136C59.079 41.028 58.746 40.647 58.704 40.185C58.662 39.723 58.917 39.288 59.34 39.099C61.419 38.175 62.763 36.108 62.763 33.84C62.763 30.663 60.183 28.08 57.0061 28.08C53.829 28.08 51.246 30.663 51.246 33.84C51.246 34.506 51.357 35.154 51.576 35.775C54.153 37.083 55.926 39.756 55.926 42.837C55.926 45.141 54.921 47.289 53.244 48.771C57.951 50.814 61.08 55.461 61.08 60.759V72H58.92V60.753C58.92 55.671 55.473 51.303 50.532 50.13C50.082 50.025 49.749 49.641 49.707 49.179C49.665 48.72 49.92 48.282 50.343 48.093C52.422 47.169 53.766 45.102 53.766 42.834C53.766 39.66 51.183 37.08 48.003 37.08C44.829 37.08 42.249 39.66 42.249 42.834C42.249 45.105 43.593 47.169 45.672 48.093C46.092 48.282 46.347 48.72 46.305 49.182ZM10.08 47.991C10.08 28.014 25.626 11.637 45.255 10.221L41.238 14.238L42.765 15.765L49.527 9.00001L42.762 2.23801L41.235 3.76501L45.516 8.04901C24.576 9.33901 7.92004 26.733 7.92004 47.991C7.92004 66.669 20.598 82.71 38.751 86.997L39.249 84.894C22.074 80.835 10.08 65.661 10.08 47.991ZM88.08 48C88.08 29.322 75.399 13.281 57.249 8.99101L56.751 11.094C73.926 15.15 85.92 30.327 85.92 48C85.92 67.98 70.377 84.363 50.748 85.779L54.765 81.765L53.235 80.235L46.473 87L53.235 93.765L54.765 92.235L50.484 87.954C71.427 86.661 88.08 69.264 88.08 48Z" fill="#83A9F7"/>
</svg>
